<svg width="25" height="25" viewBox="0 0 25 25" fill="none" xmlns="http://www.w3.org/2000/svg">
<g clip-path="url(#clip0_1_1056)">
<path d="M19.98 0.5H5.97998C3.21898 0.5 0.97998 2.739 0.97998 5.5V19.5C0.97998 22.261 3.21898 24.5 5.97998 24.5H19.98C22.742 24.5 24.98 22.261 24.98 19.5V5.5C24.98 2.739 22.742 0.5 19.98 0.5ZM8.97998 19.5H5.97998V8.5H8.97998V19.5ZM7.47998 7.232C6.51398 7.232 5.72998 6.442 5.72998 5.468C5.72998 4.494 6.51398 3.704 7.47998 3.704C8.44598 3.704 9.22998 4.494 9.22998 5.468C9.22998 6.442 8.44698 7.232 7.47998 7.232ZM20.98 19.5H17.98V13.896C17.98 10.528 13.98 10.783 13.98 13.896V19.5H10.98V8.5H13.98V10.265C15.376 7.679 20.98 7.488 20.98 12.741V19.5Z" fill="white"/>
</g>
<defs>
<clipPath id="clip0_1_1056">
<rect width="24" height="24" fill="white" transform="translate(0.97998 0.5)"/>
</clipPath>
</defs>
</svg>
