<svg width="36" height="36" viewBox="0 0 36 36" fill="none" xmlns="http://www.w3.org/2000/svg">
<rect x="1.5" y="1.5" width="33" height="33" stroke="black" stroke-width="3"/>
<path d="M34.4 22.9201V13.0801C34.4 6.73987 29.2602 1.6001 22.92 1.6001H13.08C6.73973 1.6001 1.59996 6.73987 1.59996 13.0801V22.9201C1.59996 29.2603 6.73973 34.4001 13.08 34.4001H22.92C29.2602 34.4001 34.4 29.2603 34.4 22.9201Z" fill="white"/>
<path fill-rule="evenodd" clip-rule="evenodd" d="M7.6251 32.8246C5.29671 31.4601 3.50082 29.3036 2.59386 26.7117C1.94965 24.8706 1.94965 22.5805 1.94965 18.0001C1.94965 13.4197 1.94965 11.1296 2.59387 9.2885C3.50082 6.69656 5.29671 4.54009 7.6251 3.17554L20.5942 16.1446C21.2437 16.7941 21.5684 17.1188 21.6901 17.4933C21.7971 17.8227 21.7971 18.1775 21.6901 18.5069C21.5684 18.8814 21.2437 19.2061 20.5942 19.8556L7.6251 32.8246Z" fill="white"/>
<path d="M14.5455 18.5808L15.128 18.0001L14.5455 17.4194L10.4427 13.3295C10.282 13.1692 10.282 12.909 10.4427 12.7487L12.7722 10.4265C12.9323 10.267 13.1912 10.267 13.3512 10.4265L20.6572 17.7097C20.818 17.87 20.818 18.1302 20.6572 18.2905L13.3512 25.5737C13.1912 25.7332 12.9323 25.7332 12.7722 25.5737L10.4427 23.2515C10.282 23.0912 10.282 22.831 10.4427 22.6707L14.5455 18.5808Z" stroke="black" stroke-width="1.64" stroke-linecap="round"/>
<path d="M22.09 13.0801L27.01 18.0001L22.09 22.9201" stroke="black" stroke-width="1.64" stroke-linecap="round"/>
</svg>
